<mxfile host="Electron" agent="Mozilla/5.0 (X11; Linux x86_64) AppleWebKit/537.36 (KHTML, like Gecko) draw.io/24.7.8 Chrome/128.0.6613.36 Electron/32.0.1 Safari/537.36" version="24.7.8">
  <diagram name="Page-1" id="R2Uyo952PSPd_4N5j9y8">
    <mxGraphModel dx="180" dy="166" grid="1" gridSize="10" guides="1" tooltips="1" connect="1" arrows="1" fold="1" page="1" pageScale="1" pageWidth="850" pageHeight="1100" math="1" shadow="0">
      <root>
        <mxCell id="0" />
        <mxCell id="1" parent="0" />
        <mxCell id="Ncmgsy7G2iVSQmRQ8hbq-1" value="" style="pointerEvents=1;verticalLabelPosition=bottom;shadow=0;dashed=0;align=center;html=1;verticalAlign=top;shape=mxgraph.electrical.capacitors.capacitor_1;direction=south;strokeWidth=2;" parent="1" vertex="1">
          <mxGeometry x="214" y="360" width="50" height="100" as="geometry" />
        </mxCell>
        <mxCell id="Ncmgsy7G2iVSQmRQ8hbq-2" value="" style="pointerEvents=1;verticalLabelPosition=bottom;shadow=0;dashed=0;align=center;html=1;verticalAlign=top;shape=mxgraph.electrical.capacitors.capacitor_1;direction=south;strokeWidth=3;" parent="1" vertex="1">
          <mxGeometry x="130" y="360" width="50" height="100" as="geometry" />
        </mxCell>
        <mxCell id="Ncmgsy7G2iVSQmRQ8hbq-3" value="" style="endArrow=none;html=1;rounded=0;entryX=1;entryY=0.5;entryDx=0;entryDy=0;entryPerimeter=0;exitX=1;exitY=0.5;exitDx=0;exitDy=0;exitPerimeter=0;strokeWidth=3;" parent="1" source="Ncmgsy7G2iVSQmRQ8hbq-2" target="Ncmgsy7G2iVSQmRQ8hbq-1" edge="1">
          <mxGeometry width="50" height="50" relative="1" as="geometry">
            <mxPoint x="160" y="460" as="sourcePoint" />
            <mxPoint x="210" y="410" as="targetPoint" />
          </mxGeometry>
        </mxCell>
        <mxCell id="Ncmgsy7G2iVSQmRQ8hbq-5" value="" style="pointerEvents=1;verticalLabelPosition=bottom;shadow=0;dashed=0;align=center;html=1;verticalAlign=top;shape=mxgraph.electrical.signal_sources.signal_ground;strokeWidth=3;" parent="1" vertex="1">
          <mxGeometry x="183" y="460" width="26" height="30" as="geometry" />
        </mxCell>
        <mxCell id="Ncmgsy7G2iVSQmRQ8hbq-6" value="&lt;font style=&quot;font-size: 14px;&quot;&gt;$$C$$&lt;/font&gt;" style="text;html=1;align=center;verticalAlign=middle;whiteSpace=wrap;rounded=0;strokeWidth=2;" parent="1" vertex="1">
          <mxGeometry x="80" y="395" width="60" height="30" as="geometry" />
        </mxCell>
        <mxCell id="Ncmgsy7G2iVSQmRQ8hbq-7" value="&lt;font style=&quot;font-size: 14px;&quot;&gt;$$C$$&lt;/font&gt;" style="text;html=1;align=center;verticalAlign=middle;whiteSpace=wrap;rounded=0;strokeWidth=2;" parent="1" vertex="1">
          <mxGeometry x="249" y="395" width="60" height="30" as="geometry" />
        </mxCell>
        <mxCell id="Ncmgsy7G2iVSQmRQ8hbq-9" value="" style="html=1;shape=mxgraph.electrical.electro-mechanical.singleSwitch;aspect=fixed;elSwitchState=off;strokeWidth=3;" parent="1" vertex="1">
          <mxGeometry x="159.5" y="344" width="75" height="20" as="geometry" />
        </mxCell>
        <mxCell id="Ncmgsy7G2iVSQmRQ8hbq-10" value="" style="endArrow=none;html=1;rounded=0;entryX=1;entryY=0.5;entryDx=0;entryDy=0;entryPerimeter=0;exitX=0;exitY=0.5;exitDx=0;exitDy=0;exitPerimeter=0;strokeWidth=3;" parent="1" edge="1">
          <mxGeometry width="50" height="50" relative="1" as="geometry">
            <mxPoint x="154" y="360" as="sourcePoint" />
            <mxPoint x="159.5" y="360" as="targetPoint" />
          </mxGeometry>
        </mxCell>
        <mxCell id="Ncmgsy7G2iVSQmRQ8hbq-11" value="" style="endArrow=none;html=1;rounded=0;entryX=1;entryY=0.5;entryDx=0;entryDy=0;entryPerimeter=0;exitX=0;exitY=0.5;exitDx=0;exitDy=0;exitPerimeter=0;strokeWidth=3;" parent="1" edge="1">
          <mxGeometry width="50" height="50" relative="1" as="geometry">
            <mxPoint x="234.5" y="360" as="sourcePoint" />
            <mxPoint x="240" y="360" as="targetPoint" />
          </mxGeometry>
        </mxCell>
        <mxCell id="Ncmgsy7G2iVSQmRQ8hbq-12" value="&lt;font style=&quot;font-size: 14px;&quot;&gt;$$V$$&lt;/font&gt;" style="text;html=1;align=center;verticalAlign=middle;whiteSpace=wrap;rounded=0;" parent="1" vertex="1">
          <mxGeometry x="125" y="330" width="60" height="30" as="geometry" />
        </mxCell>
        <mxCell id="Ncmgsy7G2iVSQmRQ8hbq-13" value="&lt;font style=&quot;font-size: 14px;&quot;&gt;$$0$$&lt;/font&gt;" style="text;html=1;align=center;verticalAlign=middle;whiteSpace=wrap;rounded=0;" parent="1" vertex="1">
          <mxGeometry x="209" y="334" width="60" height="30" as="geometry" />
        </mxCell>
        <mxCell id="Ncmgsy7G2iVSQmRQ8hbq-14" value="" style="pointerEvents=1;verticalLabelPosition=bottom;shadow=0;dashed=0;align=center;html=1;verticalAlign=top;shape=mxgraph.electrical.capacitors.capacitor_1;direction=south;strokeWidth=3;" parent="1" vertex="1">
          <mxGeometry x="505" y="360" width="50" height="100" as="geometry" />
        </mxCell>
        <mxCell id="Ncmgsy7G2iVSQmRQ8hbq-15" value="" style="pointerEvents=1;verticalLabelPosition=bottom;shadow=0;dashed=0;align=center;html=1;verticalAlign=top;shape=mxgraph.electrical.capacitors.capacitor_1;direction=south;strokeWidth=3;" parent="1" vertex="1">
          <mxGeometry x="421" y="360" width="50" height="100" as="geometry" />
        </mxCell>
        <mxCell id="Ncmgsy7G2iVSQmRQ8hbq-16" value="" style="endArrow=none;html=1;rounded=0;entryX=1;entryY=0.5;entryDx=0;entryDy=0;entryPerimeter=0;exitX=1;exitY=0.5;exitDx=0;exitDy=0;exitPerimeter=0;strokeWidth=3;" parent="1" source="Ncmgsy7G2iVSQmRQ8hbq-15" target="Ncmgsy7G2iVSQmRQ8hbq-14" edge="1">
          <mxGeometry width="50" height="50" relative="1" as="geometry">
            <mxPoint x="451" y="460" as="sourcePoint" />
            <mxPoint x="501" y="410" as="targetPoint" />
          </mxGeometry>
        </mxCell>
        <mxCell id="Ncmgsy7G2iVSQmRQ8hbq-17" value="" style="pointerEvents=1;verticalLabelPosition=bottom;shadow=0;dashed=0;align=center;html=1;verticalAlign=top;shape=mxgraph.electrical.signal_sources.signal_ground;strokeWidth=3;" parent="1" vertex="1">
          <mxGeometry x="474" y="460" width="26" height="30" as="geometry" />
        </mxCell>
        <mxCell id="Ncmgsy7G2iVSQmRQ8hbq-18" value="&lt;font style=&quot;font-size: 14px;&quot;&gt;$$C$$&lt;/font&gt;" style="text;html=1;align=center;verticalAlign=middle;whiteSpace=wrap;rounded=0;strokeWidth=2;" parent="1" vertex="1">
          <mxGeometry x="371" y="395" width="60" height="30" as="geometry" />
        </mxCell>
        <mxCell id="Ncmgsy7G2iVSQmRQ8hbq-19" value="&lt;font style=&quot;font-size: 14px;&quot;&gt;$$C$$&lt;/font&gt;" style="text;html=1;align=center;verticalAlign=middle;whiteSpace=wrap;rounded=0;" parent="1" vertex="1">
          <mxGeometry x="540" y="395" width="60" height="30" as="geometry" />
        </mxCell>
        <mxCell id="Ncmgsy7G2iVSQmRQ8hbq-21" value="" style="endArrow=none;html=1;rounded=0;entryX=1;entryY=0.5;entryDx=0;entryDy=0;entryPerimeter=0;exitX=0;exitY=0.5;exitDx=0;exitDy=0;exitPerimeter=0;strokeWidth=3;" parent="1" edge="1">
          <mxGeometry width="50" height="50" relative="1" as="geometry">
            <mxPoint x="445" y="360" as="sourcePoint" />
            <mxPoint x="450.5" y="360" as="targetPoint" />
          </mxGeometry>
        </mxCell>
        <mxCell id="Ncmgsy7G2iVSQmRQ8hbq-22" value="" style="endArrow=none;html=1;rounded=0;entryX=1;entryY=0.5;entryDx=0;entryDy=0;entryPerimeter=0;exitX=0;exitY=0.5;exitDx=0;exitDy=0;exitPerimeter=0;strokeWidth=3;" parent="1" edge="1">
          <mxGeometry width="50" height="50" relative="1" as="geometry">
            <mxPoint x="524.5" y="360" as="sourcePoint" />
            <mxPoint x="530" y="360" as="targetPoint" />
          </mxGeometry>
        </mxCell>
        <mxCell id="Ncmgsy7G2iVSQmRQ8hbq-23" value="&lt;font style=&quot;font-size: 14px;&quot;&gt;$$\frac{1}{2}V$$&lt;/font&gt;" style="text;html=1;align=center;verticalAlign=middle;whiteSpace=wrap;rounded=0;" parent="1" vertex="1">
          <mxGeometry x="456" y="320" width="60" height="30" as="geometry" />
        </mxCell>
        <mxCell id="Ncmgsy7G2iVSQmRQ8hbq-25" value="" style="html=1;shape=mxgraph.electrical.electro-mechanical.singleSwitch;aspect=fixed;elSwitchState=on;strokeWidth=3;" parent="1" vertex="1">
          <mxGeometry x="450" y="344" width="75" height="20" as="geometry" />
        </mxCell>
        <mxCell id="Ncmgsy7G2iVSQmRQ8hbq-26" value="" style="shape=flexArrow;endArrow=classic;html=1;rounded=0;strokeWidth=2;" parent="1" edge="1">
          <mxGeometry width="50" height="50" relative="1" as="geometry">
            <mxPoint x="307" y="379" as="sourcePoint" />
            <mxPoint x="377" y="379" as="targetPoint" />
          </mxGeometry>
        </mxCell>
      </root>
    </mxGraphModel>
  </diagram>
</mxfile>
